<svg xmlns="http://www.w3.org/2000/svg" viewBox="0 0 24 24" id="toogle">
  <path d="M20.7719727,5.6269531c-.5322266-1.5625-1.894043-2.6757812-3.5532227-2.9072266-3.4628906-.484375-6.9746094-.484375-10.4375,0-1.6591797,.2314453-3.0209961,1.3447266-3.5532227,2.9072266-.3022461,.8857422-.3022461,1.8603516,0,2.7460938,.5322266,1.5625,1.894043,2.6757812,3.5532227,2.9072266,1.7314453,.2421875,3.4750977,.3632812,5.21875,.3632812s3.4873047-.1210938,5.21875-.3632812c1.6591797-.2314453,3.0209961-1.3447266,3.5532227-2.9072266,.3022461-.8857422,.3022461-1.8603516,0-2.7460938Zm-1.8925781,2.1015625c-.2875977,.8427734-1.0297852,1.4443359-1.9370117,1.5712891-3.2792969,.4570312-6.6054688,.4570312-9.8847656,0-.9072266-.1269531-1.6494141-.7285156-1.9370117-1.5712891-.159668-.4697266-.159668-.9873047,0-1.4570312,.2875977-.8427734,1.0297852-1.4443359,1.9370117-1.5712891,1.6396484-.2285156,3.2910156-.34375,4.9423828-.34375s3.3027344,.1152344,4.9423828,.34375c.9072266,.1269531,1.6494141,.7285156,1.9370117,1.5712891,.159668,.4697266,.159668,.9873047,0,1.4570312Z"></path>
  <circle cx="8" cy="7" r="2"></circle>
  <path d="M17.21875,12.7197266c-3.4628906-.484375-6.9746094-.484375-10.4375,0-1.6591797,.2314453-3.0209961,1.3447266-3.5532227,2.9072266-.3022461,.8857422-.3022461,1.8603516,0,2.7460938,.5322266,1.5625,1.894043,2.6757812,3.5532227,2.9072266,1.7314453,.2421875,3.4750977,.3632812,5.21875,.3632812s3.4873047-.1210938,5.21875-.3632812c1.6591797-.2314453,3.0209961-1.3447266,3.5532227-2.9072266,.3022461-.8857422,.3022461-1.8603516,0-2.7460938-.5322266-1.5625-1.894043-2.6757812-3.5532227-2.9072266Zm1.6606445,5.0087891c-.2875977,.8427734-1.0297852,1.4443359-1.9370117,1.5712891-3.2792969,.4570312-6.6054688,.4570312-9.8847656,0-.9072266-.1269531-1.6494141-.7285156-1.9370117-1.5712891-.159668-.4697266-.159668-.9873047,0-1.4570312,.2875977-.8427734,1.0297852-1.4443359,1.9370117-1.5712891,1.6396484-.2285156,3.2910156-.34375,4.9423828-.34375s3.3027344,.1152344,4.9423828,.34375c.9072266,.1269531,1.6494141,.7285156,1.9370117,1.5712891,.159668,.4697266,.159668,.9873047,0,1.4570312Z"></path>
  <circle cx="16" cy="17" r="2"></circle>
</svg>
